<?xml version="1.0" standalone="no"?><!DOCTYPE svg PUBLIC "-//W3C//DTD SVG 1.1//EN" "http://www.w3.org/Graphics/SVG/1.1/DTD/svg11.dtd"><svg t="1727486693515" class="icon" viewBox="0 0 1024 1024" version="1.1" xmlns="http://www.w3.org/2000/svg" p-id="6869" xmlns:xlink="http://www.w3.org/1999/xlink" width="256" height="256"><path d="M833.024 520.192v317.44h-629.76v-629.76h312.832c4.096 0 7.68-3.584 7.68-7.68V145.92c0-4.096-3.584-7.68-7.68-7.68H164.864c-16.896 0-30.72 13.824-30.72 30.72v706.56c0 16.896 13.824 30.72 30.72 30.72h706.56c16.896 0 30.72-13.824 30.72-30.72v-355.328c0-2.56-2.048-5.12-5.12-5.12l-58.88-0.512c-2.56 0.512-5.12 2.56-5.12 5.632z" p-id="6870"></path><path d="M868.864 166.4l-179.712 20.992c-6.656 1.024-9.728 8.704-4.608 13.824l53.76 53.76-330.752 330.752c-3.072 3.072-3.072 8.192 0 11.264l39.424 39.424c3.072 3.072 8.192 3.072 11.264 0l330.752-330.752 53.76 53.76c4.608 4.608 12.8 2.048 13.824-4.608l20.992-179.712c0.512-5.12-3.584-9.216-8.704-8.704z" p-id="6871"></path></svg>